<svg width="1024" height="1024" viewBox="0 0 1024 1024" fill="none" xmlns="http://www.w3.org/2000/svg">
<path d="M121.426 674V597.7H128.075L162.955 657.214H159.467L194.02 597.7H200.669V674H192.93V609.799H194.783L162.955 664.299H159.14L127.094 609.799H129.165V674H121.426ZM293.764 674.654C288.023 674.654 282.682 673.709 277.741 671.82C272.872 669.858 268.621 667.133 264.988 663.645C261.427 660.084 258.629 655.979 256.595 651.328C254.633 646.605 253.652 641.445 253.652 635.85C253.652 630.255 254.633 625.132 256.595 620.481C258.629 615.758 261.427 611.652 264.988 608.164C268.621 604.603 272.872 601.878 277.741 599.989C282.609 598.027 287.95 597.046 293.764 597.046C299.504 597.046 304.809 598.027 309.678 599.989C314.546 601.878 318.761 604.567 322.322 608.055C325.955 611.543 328.753 615.649 330.715 620.372C332.749 625.095 333.767 630.255 333.767 635.85C333.767 641.445 332.749 646.605 330.715 651.328C328.753 656.051 325.955 660.157 322.322 663.645C318.761 667.133 314.546 669.858 309.678 671.82C304.809 673.709 299.504 674.654 293.764 674.654ZM293.764 667.46C298.342 667.46 302.556 666.697 306.408 665.171C310.332 663.572 313.711 661.356 316.545 658.522C319.451 655.615 321.704 652.273 323.303 648.494C324.901 644.643 325.701 640.428 325.701 635.85C325.701 631.272 324.901 627.094 323.303 623.315C321.704 619.464 319.451 616.121 316.545 613.287C313.711 610.38 310.332 608.164 306.408 606.638C302.556 605.039 298.342 604.24 293.764 604.24C289.186 604.24 284.935 605.039 281.011 606.638C277.087 608.164 273.671 610.38 270.765 613.287C267.931 616.121 265.678 619.464 264.007 623.315C262.408 627.094 261.609 631.272 261.609 635.85C261.609 640.355 262.408 644.534 264.007 648.385C265.678 652.236 267.931 655.615 270.765 658.522C273.671 661.356 277.087 663.572 281.011 665.171C284.935 666.697 289.186 667.46 293.764 667.46ZM420.08 674.654C414.339 674.654 408.998 673.709 404.057 671.82C399.188 669.858 394.937 667.133 391.304 663.645C387.743 660.084 384.946 655.979 382.911 651.328C380.949 646.605 379.968 641.445 379.968 635.85C379.968 630.255 380.949 625.132 382.911 620.481C384.946 615.758 387.743 611.652 391.304 608.164C394.937 604.603 399.188 601.878 404.057 599.989C408.926 598.027 414.267 597.046 420.08 597.046C425.821 597.046 431.125 598.027 435.994 599.989C440.863 601.878 445.077 604.567 448.638 608.055C452.271 611.543 455.069 615.649 457.031 620.372C459.066 625.095 460.083 630.255 460.083 635.85C460.083 641.445 459.066 646.605 457.031 651.328C455.069 656.051 452.271 660.157 448.638 663.645C445.077 667.133 440.863 669.858 435.994 671.82C431.125 673.709 425.821 674.654 420.08 674.654ZM420.08 667.46C424.658 667.46 428.873 666.697 432.724 665.171C436.648 663.572 440.027 661.356 442.861 658.522C445.768 655.615 448.02 652.273 449.619 648.494C451.218 644.643 452.017 640.428 452.017 635.85C452.017 631.272 451.218 627.094 449.619 623.315C448.02 619.464 445.768 616.121 442.861 613.287C440.027 610.38 436.648 608.164 432.724 606.638C428.873 605.039 424.658 604.24 420.08 604.24C415.502 604.24 411.251 605.039 407.327 606.638C403.403 608.164 399.988 610.38 397.081 613.287C394.247 616.121 391.994 619.464 390.323 623.315C388.724 627.094 387.925 631.272 387.925 635.85C387.925 640.355 388.724 644.534 390.323 648.385C391.994 652.236 394.247 655.615 397.081 658.522C399.988 661.356 403.403 663.572 407.327 665.171C411.251 666.697 415.502 667.46 420.08 667.46ZM513.043 674V597.7H541.601C551.265 597.7 558.859 600.025 564.382 604.676C569.977 609.254 572.775 615.649 572.775 623.86C572.775 629.237 571.503 633.888 568.96 637.812C566.489 641.663 562.928 644.643 558.278 646.75C553.627 648.785 548.068 649.802 541.601 649.802H517.512L521.109 646.096V674H513.043ZM565.145 674L545.525 646.314H554.245L573.974 674H565.145ZM521.109 646.75L517.512 642.935H541.383C549.013 642.935 554.79 641.264 558.714 637.921C562.71 634.578 564.709 629.891 564.709 623.86C564.709 617.756 562.71 613.033 558.714 609.69C554.79 606.347 549.013 604.676 541.383 604.676H517.512L521.109 600.861V646.75ZM626.692 674V597.7H634.758V674H626.692ZM694.464 674V597.7H701.113L753.76 663.972H750.272V597.7H758.229V674H751.58L699.042 607.728H702.53V674H694.464ZM851.476 674.654C845.662 674.654 840.285 673.709 835.344 671.82C830.475 669.858 826.224 667.133 822.591 663.645C819.03 660.157 816.232 656.051 814.198 651.328C812.236 646.605 811.255 641.445 811.255 635.85C811.255 630.255 812.236 625.095 814.198 620.372C816.232 615.649 819.066 611.543 822.7 608.055C826.333 604.567 830.584 601.878 835.453 599.989C840.394 598.027 845.771 597.046 851.585 597.046C857.398 597.046 862.703 597.954 867.499 599.771C872.367 601.588 876.509 604.349 879.925 608.055L874.911 613.178C871.713 609.981 868.189 607.692 864.338 606.311C860.486 604.93 856.344 604.24 851.912 604.24C847.188 604.24 842.828 605.039 838.832 606.638C834.908 608.164 831.456 610.38 828.477 613.287C825.57 616.121 823.281 619.464 821.61 623.315C820.011 627.094 819.212 631.272 819.212 635.85C819.212 640.355 820.011 644.534 821.61 648.385C823.281 652.236 825.57 655.615 828.477 658.522C831.456 661.356 834.908 663.572 838.832 665.171C842.828 666.697 847.152 667.46 851.803 667.46C856.163 667.46 860.268 666.806 864.12 665.498C868.044 664.19 871.641 661.974 874.911 658.849L879.489 664.953C875.855 668.15 871.604 670.585 866.736 672.256C861.867 673.855 856.78 674.654 851.476 674.654ZM879.489 664.953L871.75 663.972V635.85H879.489V664.953Z" fill="white"/>
<path d="M293.727 743.424C291.465 743.424 289.359 743.057 287.408 742.321C285.485 741.558 283.803 740.498 282.361 739.141C280.948 737.755 279.845 736.13 279.053 734.264C278.262 732.398 277.866 730.362 277.866 728.157C277.866 725.952 278.262 723.916 279.053 722.05C279.845 720.184 280.962 718.572 282.404 717.215C283.846 715.83 285.528 714.77 287.45 714.035C289.373 713.271 291.479 712.89 293.769 712.89C296.201 712.89 298.42 713.314 300.428 714.162C302.435 714.982 304.131 716.212 305.517 717.851L301.954 721.202C300.88 720.043 299.678 719.18 298.35 718.615C297.021 718.021 295.579 717.724 294.024 717.724C292.469 717.724 291.041 717.979 289.74 718.488C288.468 718.997 287.351 719.717 286.39 720.65C285.457 721.583 284.722 722.686 284.185 723.958C283.676 725.231 283.422 726.63 283.422 728.157C283.422 729.684 283.676 731.083 284.185 732.355C284.722 733.628 285.457 734.73 286.39 735.663C287.351 736.596 288.468 737.317 289.74 737.826C291.041 738.335 292.469 738.589 294.024 738.589C295.579 738.589 297.021 738.307 298.35 737.741C299.678 737.148 300.88 736.257 301.954 735.07L305.517 738.462C304.131 740.074 302.435 741.304 300.428 742.152C298.42 743 296.187 743.424 293.727 743.424ZM336.458 743.424C334.14 743.424 332.005 743.042 330.054 742.279C328.103 741.516 326.407 740.455 324.965 739.098C323.523 737.713 322.406 736.101 321.615 734.264C320.823 732.398 320.427 730.362 320.427 728.157C320.427 725.952 320.823 723.93 321.615 722.092C322.406 720.226 323.523 718.615 324.965 717.258C326.407 715.872 328.103 714.798 330.054 714.035C332.005 713.271 334.125 712.89 336.416 712.89C338.734 712.89 340.854 713.271 342.777 714.035C344.728 714.798 346.424 715.872 347.866 717.258C349.308 718.615 350.425 720.226 351.216 722.092C352.008 723.93 352.404 725.952 352.404 728.157C352.404 730.362 352.008 732.398 351.216 734.264C350.425 736.13 349.308 737.741 347.866 739.098C346.424 740.455 344.728 741.516 342.777 742.279C340.854 743.042 338.748 743.424 336.458 743.424ZM336.416 738.589C337.914 738.589 339.299 738.335 340.572 737.826C341.844 737.317 342.946 736.596 343.879 735.663C344.812 734.702 345.533 733.599 346.042 732.355C346.58 731.083 346.848 729.684 346.848 728.157C346.848 726.63 346.58 725.245 346.042 724.001C345.533 722.729 344.812 721.626 343.879 720.693C342.946 719.732 341.844 718.997 340.572 718.488C339.299 717.979 337.914 717.724 336.416 717.724C334.917 717.724 333.532 717.979 332.259 718.488C331.015 718.997 329.913 719.732 328.952 720.693C328.019 721.626 327.283 722.729 326.746 724.001C326.237 725.245 325.983 726.63 325.983 728.157C325.983 729.655 326.237 731.041 326.746 732.313C327.283 733.585 328.019 734.702 328.952 735.663C329.885 736.596 330.987 737.317 332.259 737.826C333.532 738.335 334.917 738.589 336.416 738.589ZM371.818 743V713.314H383.99C387.948 713.314 391.044 714.247 393.277 716.113C395.539 717.979 396.67 720.566 396.67 723.874C396.67 726.051 396.161 727.931 395.143 729.514C394.125 731.069 392.669 732.271 390.775 733.119C388.909 733.939 386.661 734.349 384.032 734.349H374.872L377.332 731.846V743H371.818ZM391.242 743L383.735 732.228H389.63L397.179 743H391.242ZM377.332 732.44L374.872 729.811H383.778C386.209 729.811 388.033 729.288 389.248 728.242C390.492 727.196 391.114 725.74 391.114 723.874C391.114 721.979 390.492 720.523 389.248 719.505C388.033 718.488 386.209 717.979 383.778 717.979H374.872L377.332 715.265V732.44ZM416.409 743V713.314H428.623C431.252 713.314 433.5 713.738 435.366 714.586C437.26 715.434 438.716 716.65 439.734 718.233C440.752 719.816 441.261 721.697 441.261 723.874C441.261 726.051 440.752 727.931 439.734 729.514C438.716 731.097 437.26 732.313 435.366 733.161C433.5 734.009 431.252 734.433 428.623 734.433H419.462L421.922 731.846V743H416.409ZM421.922 732.44L419.462 729.768H428.368C430.8 729.768 432.623 729.26 433.839 728.242C435.083 727.196 435.705 725.74 435.705 723.874C435.705 721.979 435.083 720.523 433.839 719.505C432.623 718.488 430.8 717.979 428.368 717.979H419.462L421.922 715.265V732.44ZM474.661 743.424C472.343 743.424 470.208 743.042 468.258 742.279C466.307 741.516 464.61 740.455 463.169 739.098C461.727 737.713 460.61 736.101 459.818 734.264C459.027 732.398 458.631 730.362 458.631 728.157C458.631 725.952 459.027 723.93 459.818 722.092C460.61 720.226 461.727 718.615 463.169 717.258C464.61 715.872 466.307 714.798 468.258 714.035C470.208 713.271 472.329 712.89 474.619 712.89C476.937 712.89 479.058 713.271 480.98 714.035C482.931 714.798 484.627 715.872 486.069 717.258C487.511 718.615 488.628 720.226 489.42 722.092C490.211 723.93 490.607 725.952 490.607 728.157C490.607 730.362 490.211 732.398 489.42 734.264C488.628 736.13 487.511 737.741 486.069 739.098C484.627 740.455 482.931 741.516 480.98 742.279C479.058 743.042 476.951 743.424 474.661 743.424ZM474.619 738.589C476.117 738.589 477.503 738.335 478.775 737.826C480.047 737.317 481.15 736.596 482.083 735.663C483.016 734.702 483.737 733.599 484.246 732.355C484.783 731.083 485.052 729.684 485.052 728.157C485.052 726.63 484.783 725.245 484.246 724.001C483.737 722.729 483.016 721.626 482.083 720.693C481.15 719.732 480.047 718.997 478.775 718.488C477.503 717.979 476.117 717.724 474.619 717.724C473.121 717.724 471.735 717.979 470.463 718.488C469.219 718.997 468.116 719.732 467.155 720.693C466.222 721.626 465.487 722.729 464.95 724.001C464.441 725.245 464.186 726.63 464.186 728.157C464.186 729.655 464.441 731.041 464.95 732.313C465.487 733.585 466.222 734.702 467.155 735.663C468.088 736.596 469.191 737.317 470.463 737.826C471.735 738.335 473.121 738.589 474.619 738.589ZM510.022 743V713.314H522.193C526.151 713.314 529.247 714.247 531.481 716.113C533.743 717.979 534.873 720.566 534.873 723.874C534.873 726.051 534.365 727.931 533.347 729.514C532.329 731.069 530.873 732.271 528.979 733.119C527.113 733.939 524.865 734.349 522.236 734.349H513.075L515.535 731.846V743H510.022ZM529.445 743L521.939 732.228H527.834L535.382 743H529.445ZM515.535 732.44L513.075 729.811H521.981C524.413 729.811 526.236 729.288 527.452 728.242C528.696 727.196 529.318 725.74 529.318 723.874C529.318 721.979 528.696 720.523 527.452 719.505C526.236 718.488 524.413 717.979 521.981 717.979H513.075L515.535 715.265V732.44ZM550.414 743L563.773 713.314H569.201L582.602 743H576.835L565.342 716.24H567.547L556.097 743H550.414ZM556.563 736.13L558.048 731.804H574.078L575.562 736.13H556.563ZM604.48 743V717.979H594.641V713.314H619.832V717.979H609.993V743H604.48ZM637.54 743V713.314H643.053V743H637.54ZM678.564 743.424C676.246 743.424 674.111 743.042 672.16 742.279C670.209 741.516 668.513 740.455 667.071 739.098C665.629 737.713 664.512 736.101 663.721 734.264C662.929 732.398 662.533 730.362 662.533 728.157C662.533 725.952 662.929 723.93 663.721 722.092C664.512 720.226 665.629 718.615 667.071 717.258C668.513 715.872 670.209 714.798 672.16 714.035C674.111 713.271 676.231 712.89 678.521 712.89C680.84 712.89 682.96 713.271 684.883 714.035C686.834 714.798 688.53 715.872 689.972 717.258C691.414 718.615 692.531 720.226 693.322 722.092C694.114 723.93 694.51 725.952 694.51 728.157C694.51 730.362 694.114 732.398 693.322 734.264C692.531 736.13 691.414 737.741 689.972 739.098C688.53 740.455 686.834 741.516 684.883 742.279C682.96 743.042 680.854 743.424 678.564 743.424ZM678.521 738.589C680.02 738.589 681.405 738.335 682.678 737.826C683.95 737.317 685.052 736.596 685.985 735.663C686.918 734.702 687.639 733.599 688.148 732.355C688.685 731.083 688.954 729.684 688.954 728.157C688.954 726.63 688.685 725.245 688.148 724.001C687.639 722.729 686.918 721.626 685.985 720.693C685.052 719.732 683.95 718.997 682.678 718.488C681.405 717.979 680.02 717.724 678.521 717.724C677.023 717.724 675.638 717.979 674.365 718.488C673.121 718.997 672.019 719.732 671.057 720.693C670.124 721.626 669.389 722.729 668.852 724.001C668.343 725.245 668.089 726.63 668.089 728.157C668.089 729.655 668.343 731.041 668.852 732.313C669.389 733.585 670.124 734.702 671.057 735.663C671.99 736.596 673.093 737.317 674.365 737.826C675.638 738.335 677.023 738.589 678.521 738.589ZM713.924 743V713.314H718.462L737.08 736.172H734.832V713.314H740.303V743H735.765L717.147 720.142H719.395V743H713.924Z" fill="white"/>
<path d="M160.344 791V776.605H161.866V791H160.344ZM173.13 791V776.605H174.384L184.317 789.108H183.658V776.605H185.16V791H183.905L173.994 778.497H174.652V791H173.13ZM199.235 791V777.922H194.176V776.605H205.815V777.922H200.757V791H199.235ZM214.827 791V776.605H224.697V777.922H216.348V789.684H225.006V791H214.827ZM216.184 784.337V783.042H223.793V784.337H216.184ZM235.163 791V776.605H236.685V789.684H244.746V791H235.163ZM253.853 791V776.605H255.374V789.684H263.435V791H253.853ZM272.542 791V776.605H274.064V791H272.542ZM291.641 791.123C290.544 791.123 289.53 790.945 288.598 790.589C287.679 790.219 286.877 789.704 286.192 789.046C285.52 788.388 284.992 787.614 284.608 786.723C284.238 785.832 284.053 784.858 284.053 783.803C284.053 782.747 284.238 781.774 284.608 780.883C284.992 779.992 285.527 779.217 286.212 778.559C286.898 777.901 287.7 777.394 288.618 777.037C289.55 776.667 290.565 776.482 291.662 776.482C292.758 776.482 293.759 776.653 294.664 776.996C295.582 777.339 296.364 777.86 297.008 778.559L296.062 779.525C295.459 778.922 294.794 778.49 294.068 778.23C293.341 777.969 292.56 777.839 291.723 777.839C290.832 777.839 290.01 777.99 289.256 778.292C288.515 778.58 287.864 778.998 287.302 779.546C286.754 780.081 286.322 780.711 286.007 781.438C285.705 782.151 285.554 782.939 285.554 783.803C285.554 784.653 285.705 785.441 286.007 786.168C286.322 786.894 286.754 787.532 287.302 788.08C287.864 788.615 288.515 789.033 289.256 789.334C290.01 789.622 290.825 789.766 291.703 789.766C292.525 789.766 293.3 789.643 294.026 789.396C294.767 789.149 295.445 788.731 296.062 788.142L296.926 789.293C296.24 789.896 295.438 790.356 294.52 790.671C293.601 790.973 292.642 791.123 291.641 791.123ZM296.926 789.293L295.466 789.108V783.803H296.926V789.293ZM307.813 791V776.605H317.684V777.922H309.335V789.684H317.992V791H307.813ZM309.17 784.337V783.042H316.779V784.337H309.17ZM328.149 791V776.605H329.404L339.336 789.108H338.678V776.605H340.179V791H338.925L329.013 778.497H329.671V791H328.149ZM354.255 791V777.922H349.196V776.605H360.835V777.922H355.776V791H354.255ZM379.505 791L386.086 776.605H387.587L394.167 791H392.563L386.518 777.49H387.135L381.089 791H379.505ZM382.097 787.155L382.549 785.921H390.918L391.371 787.155H382.097ZM408.627 791.123C406.79 791.123 405.343 790.596 404.288 789.54C403.232 788.484 402.704 786.922 402.704 784.851V776.605H404.226V784.79C404.226 786.49 404.61 787.744 405.378 788.553C406.145 789.362 407.228 789.766 408.627 789.766C410.039 789.766 411.129 789.362 411.896 788.553C412.664 787.744 413.048 786.49 413.048 784.79V776.605H414.528V784.851C414.528 786.922 414.001 788.484 412.945 789.54C411.903 790.596 410.464 791.123 408.627 791.123ZM428.21 791V777.922H423.151V776.605H434.79V777.922H429.732V791H428.21ZM449.893 791.123C448.81 791.123 447.803 790.945 446.87 790.589C445.952 790.219 445.15 789.704 444.465 789.046C443.793 788.375 443.265 787.6 442.881 786.723C442.511 785.832 442.326 784.858 442.326 783.803C442.326 782.747 442.511 781.781 442.881 780.903C443.265 780.012 443.793 779.238 444.465 778.58C445.15 777.908 445.952 777.394 446.87 777.037C447.789 776.667 448.797 776.482 449.893 776.482C450.976 776.482 451.977 776.667 452.896 777.037C453.814 777.394 454.609 777.901 455.281 778.559C455.966 779.217 456.494 779.992 456.864 780.883C457.248 781.774 457.44 782.747 457.44 783.803C457.44 784.858 457.248 785.832 456.864 786.723C456.494 787.614 455.966 788.388 455.281 789.046C454.609 789.704 453.814 790.219 452.896 790.589C451.977 790.945 450.976 791.123 449.893 791.123ZM449.893 789.766C450.757 789.766 451.552 789.622 452.279 789.334C453.019 789.033 453.656 788.615 454.191 788.08C454.74 787.532 455.164 786.901 455.466 786.188C455.768 785.462 455.918 784.666 455.918 783.803C455.918 782.939 455.768 782.151 455.466 781.438C455.164 780.711 454.74 780.081 454.191 779.546C453.656 778.998 453.019 778.58 452.279 778.292C451.552 777.99 450.757 777.839 449.893 777.839C449.03 777.839 448.228 777.99 447.487 778.292C446.747 778.58 446.103 778.998 445.554 779.546C445.02 780.081 444.595 780.711 444.279 781.438C443.978 782.151 443.827 782.939 443.827 783.803C443.827 784.653 443.978 785.441 444.279 786.168C444.595 786.894 445.02 787.532 445.554 788.08C446.103 788.615 446.747 789.033 447.487 789.334C448.228 789.622 449.03 789.766 449.893 789.766ZM467.431 791V776.605H468.686L475.266 787.833H474.608L481.127 776.605H482.381V791H480.921V778.888H481.271L475.266 789.17H474.546L468.501 778.888H468.891V791H467.431ZM491.349 791L497.929 776.605H499.43L506.01 791H504.406L498.361 777.49H498.978L492.932 791H491.349ZM493.94 787.155L494.392 785.921H502.761L503.214 787.155H493.94ZM517.046 791V777.922H511.987V776.605H523.626V777.922H518.568V791H517.046ZM532.638 791V776.605H534.159V791H532.638ZM551.716 791.123C550.633 791.123 549.625 790.945 548.693 790.589C547.774 790.219 546.972 789.704 546.287 789.046C545.615 788.375 545.087 787.6 544.703 786.723C544.333 785.832 544.148 784.858 544.148 783.803C544.148 782.747 544.333 781.781 544.703 780.903C545.087 780.012 545.615 779.238 546.287 778.58C546.972 777.908 547.774 777.394 548.693 777.037C549.611 776.667 550.619 776.482 551.716 776.482C552.799 776.482 553.799 776.667 554.718 777.037C555.636 777.394 556.432 777.901 557.103 778.559C557.789 779.217 558.317 779.992 558.687 780.883C559.071 781.774 559.263 782.747 559.263 783.803C559.263 784.858 559.071 785.832 558.687 786.723C558.317 787.614 557.789 788.388 557.103 789.046C556.432 789.704 555.636 790.219 554.718 790.589C553.799 790.945 552.799 791.123 551.716 791.123ZM551.716 789.766C552.579 789.766 553.374 789.622 554.101 789.334C554.841 789.033 555.479 788.615 556.013 788.08C556.562 787.532 556.987 786.901 557.288 786.188C557.59 785.462 557.741 784.666 557.741 783.803C557.741 782.939 557.59 782.151 557.288 781.438C556.987 780.711 556.562 780.081 556.013 779.546C555.479 778.998 554.841 778.58 554.101 778.292C553.374 777.99 552.579 777.839 551.716 777.839C550.852 777.839 550.05 777.99 549.31 778.292C548.569 778.58 547.925 778.998 547.377 779.546C546.842 780.081 546.417 780.711 546.102 781.438C545.8 782.151 545.649 782.939 545.649 783.803C545.649 784.653 545.8 785.441 546.102 786.168C546.417 786.894 546.842 787.532 547.377 788.08C547.925 788.615 548.569 789.033 549.31 789.334C550.05 789.622 550.852 789.766 551.716 789.766ZM569.254 791V776.605H570.508L580.44 789.108H579.782V776.605H581.283V791H580.029L570.117 778.497H570.775V791H569.254ZM592.398 791.103C592.096 791.103 591.836 790.993 591.616 790.774C591.411 790.554 591.308 790.287 591.308 789.972C591.308 789.643 591.411 789.375 591.616 789.17C591.836 788.964 592.096 788.861 592.398 788.861C592.699 788.861 592.953 788.964 593.159 789.17C593.378 789.375 593.488 789.643 593.488 789.972C593.488 790.287 593.378 790.554 593.159 790.774C592.953 790.993 592.699 791.103 592.398 791.103ZM615.463 791V776.605H620.85C622.674 776.605 624.106 777.044 625.148 777.922C626.204 778.785 626.731 779.992 626.731 781.541C626.731 782.555 626.492 783.433 626.012 784.173C625.546 784.899 624.874 785.462 623.997 785.859C623.119 786.243 622.07 786.435 620.85 786.435H616.306L616.984 785.736V791H615.463ZM625.292 791L621.591 785.777H623.236L626.958 791H625.292ZM616.984 785.859L616.306 785.139H620.809C622.249 785.139 623.338 784.824 624.079 784.193C624.833 783.563 625.21 782.679 625.21 781.541C625.21 780.389 624.833 779.498 624.079 778.867C623.338 778.237 622.249 777.922 620.809 777.922H616.306L616.984 777.202V785.859ZM636.903 791V776.605H646.774V777.922H638.425V789.684H647.082V791H636.903ZM638.261 784.337V783.042H645.869V784.337H638.261ZM654.937 791L661.517 776.605H663.018L669.599 791H667.995L661.949 777.49H662.566L656.52 791H654.937ZM657.528 787.155L657.98 785.921H666.349L666.802 787.155H657.528ZM678.56 791V776.605H680.082V789.684H688.143V791H678.56ZM709.212 791V776.605H714.6C716.423 776.605 717.856 777.044 718.898 777.922C719.953 778.785 720.481 779.992 720.481 781.541C720.481 782.555 720.241 783.433 719.761 784.173C719.295 784.899 718.623 785.462 717.746 785.859C716.869 786.243 715.82 786.435 714.6 786.435H710.055L710.734 785.736V791H709.212ZM719.041 791L715.34 785.777H716.985L720.707 791H719.041ZM710.734 785.859L710.055 785.139H714.559C715.998 785.139 717.088 784.824 717.828 784.193C718.582 783.563 718.959 782.679 718.959 781.541C718.959 780.389 718.582 779.498 717.828 778.867C717.088 778.237 715.998 777.922 714.559 777.922H710.055L710.734 777.202V785.859ZM730.653 791V776.605H740.523V777.922H732.175V789.684H740.832V791H730.653ZM732.01 784.337V783.042H739.619V784.337H732.01ZM754.958 791.123C753.889 791.123 752.861 790.952 751.873 790.609C750.9 790.253 750.146 789.8 749.611 789.252L750.208 788.08C750.715 788.573 751.394 788.992 752.244 789.334C753.107 789.663 754.012 789.828 754.958 789.828C755.863 789.828 756.596 789.718 757.158 789.499C757.734 789.266 758.152 788.957 758.413 788.573C758.687 788.19 758.824 787.765 758.824 787.299C758.824 786.736 758.659 786.284 758.33 785.941C758.015 785.599 757.597 785.331 757.076 785.139C756.555 784.934 755.979 784.755 755.349 784.605C754.718 784.454 754.087 784.296 753.457 784.132C752.826 783.954 752.244 783.72 751.709 783.433C751.188 783.145 750.763 782.768 750.434 782.302C750.119 781.822 749.961 781.198 749.961 780.43C749.961 779.717 750.146 779.066 750.516 778.477C750.9 777.874 751.483 777.394 752.264 777.037C753.046 776.667 754.046 776.482 755.266 776.482C756.075 776.482 756.877 776.599 757.672 776.832C758.468 777.051 759.153 777.359 759.729 777.757L759.215 778.97C758.598 778.559 757.94 778.257 757.241 778.065C756.555 777.874 755.89 777.778 755.246 777.778C754.382 777.778 753.669 777.894 753.107 778.127C752.545 778.36 752.127 778.676 751.853 779.073C751.592 779.457 751.462 779.896 751.462 780.389C751.462 780.951 751.62 781.404 751.935 781.746C752.264 782.089 752.689 782.356 753.21 782.548C753.745 782.74 754.327 782.912 754.958 783.062C755.589 783.213 756.212 783.378 756.829 783.556C757.46 783.734 758.036 783.967 758.557 784.255C759.091 784.529 759.516 784.899 759.832 785.366C760.161 785.832 760.325 786.442 760.325 787.196C760.325 787.895 760.133 788.546 759.749 789.149C759.365 789.739 758.776 790.219 757.981 790.589C757.199 790.945 756.192 791.123 754.958 791.123ZM776.02 791.123C774.183 791.123 772.737 790.596 771.681 789.54C770.626 788.484 770.098 786.922 770.098 784.851V776.605H771.619V784.79C771.619 786.49 772.003 787.744 772.771 788.553C773.539 789.362 774.622 789.766 776.02 789.766C777.432 789.766 778.522 789.362 779.29 788.553C780.057 787.744 780.441 786.49 780.441 784.79V776.605H781.922V784.851C781.922 786.922 781.394 788.484 780.338 789.54C779.297 790.596 777.857 791.123 776.02 791.123ZM793.088 791V776.605H794.609V789.684H802.67V791H793.088ZM812.988 791V777.922H807.929V776.605H819.568V777.922H814.509V791H812.988ZM832.327 791.123C831.258 791.123 830.23 790.952 829.243 790.609C828.269 790.253 827.515 789.8 826.981 789.252L827.577 788.08C828.084 788.573 828.763 788.992 829.613 789.334C830.477 789.663 831.381 789.828 832.327 789.828C833.232 789.828 833.966 789.718 834.528 789.499C835.103 789.266 835.521 788.957 835.782 788.573C836.056 788.19 836.193 787.765 836.193 787.299C836.193 786.736 836.029 786.284 835.7 785.941C835.384 785.599 834.966 785.331 834.445 785.139C833.924 784.934 833.349 784.755 832.718 784.605C832.087 784.454 831.457 784.296 830.826 784.132C830.196 783.954 829.613 783.72 829.078 783.433C828.557 783.145 828.132 782.768 827.803 782.302C827.488 781.822 827.33 781.198 827.33 780.43C827.33 779.717 827.515 779.066 827.886 778.477C828.269 777.874 828.852 777.394 829.633 777.037C830.415 776.667 831.416 776.482 832.636 776.482C833.445 776.482 834.247 776.599 835.042 776.832C835.837 777.051 836.522 777.359 837.098 777.757L836.584 778.97C835.967 778.559 835.309 778.257 834.61 778.065C833.924 777.874 833.259 777.778 832.615 777.778C831.751 777.778 831.039 777.894 830.477 778.127C829.914 778.36 829.496 778.676 829.222 779.073C828.962 779.457 828.831 779.896 828.831 780.389C828.831 780.951 828.989 781.404 829.304 781.746C829.633 782.089 830.058 782.356 830.579 782.548C831.114 782.74 831.697 782.912 832.327 783.062C832.958 783.213 833.582 783.378 834.199 783.556C834.829 783.734 835.405 783.967 835.926 784.255C836.461 784.529 836.886 784.899 837.201 785.366C837.53 785.832 837.694 786.442 837.694 787.196C837.694 787.895 837.502 788.546 837.119 789.149C836.735 789.739 836.145 790.219 835.35 790.589C834.569 790.945 833.561 791.123 832.327 791.123ZM847.827 791.103C847.526 791.103 847.265 790.993 847.046 790.774C846.84 790.554 846.738 790.287 846.738 789.972C846.738 789.643 846.84 789.375 847.046 789.17C847.265 788.964 847.526 788.861 847.827 788.861C848.129 788.861 848.383 788.964 848.588 789.17C848.808 789.375 848.917 789.643 848.917 789.972C848.917 790.287 848.808 790.554 848.588 790.774C848.383 790.993 848.129 791.103 847.827 791.103Z" fill="white"/>
<rect x="769" y="721" width="127" height="2" fill="white"/>
<rect x="126" y="721" width="127" height="2" fill="white"/>
<path d="M387.238 270.593L389 272.26V272.282L498.798 377.633L472.601 404.937L389 324.723V493L373 509L350 532.177L350.143 237.196V235L387.238 270.593Z" fill="white"/>
<path d="M672.143 237.779V421H633.143V322.694L472.951 478.416V455.5L472.946 428.5L472.951 428.683L473.71 427.944L650.357 256.227L652.643 254L672.143 235V235.049L672.194 235L672.143 237.779Z" fill="white"/>
<path d="M585.945 455L594.945 446.5L602.945 439H671.945V455H585.945Z" fill="white"/>
<path d="M544.945 494L557.445 482L564.945 475H671.945V494H544.945Z" fill="white"/>
<path d="M504.945 532L516.445 521L523.945 514H671.945V532H504.945Z" fill="white"/>
</svg>
