<svg width="1024" height="1024" viewBox="0 0 1024 1024" fill="none" xmlns="http://www.w3.org/2000/svg">
<path d="M95.2626 642V560.563H102.359L139.588 624.084H135.865L172.744 560.563H179.841V642H171.581V573.477H173.558L139.588 631.646H135.516L101.312 573.477H103.523V642H95.2626ZM279.203 642.698C273.076 642.698 267.375 641.69 262.101 639.673C256.905 637.579 252.368 634.671 248.49 630.948C244.689 627.147 241.703 622.765 239.532 617.802C237.437 612.76 236.39 607.254 236.39 601.281C236.39 595.309 237.437 589.842 239.532 584.878C241.703 579.836 244.689 575.454 248.49 571.731C252.368 567.931 256.905 565.023 262.101 563.006C267.298 560.912 272.998 559.865 279.203 559.865C285.33 559.865 290.992 560.912 296.188 563.006C301.385 565.023 305.883 567.892 309.684 571.615C313.562 575.338 316.548 579.72 318.642 584.761C320.813 589.803 321.899 595.309 321.899 601.281C321.899 607.254 320.813 612.76 318.642 617.802C316.548 622.843 313.562 627.225 309.684 630.948C305.883 634.671 301.385 637.579 296.188 639.673C290.992 641.69 285.33 642.698 279.203 642.698ZM279.203 635.02C284.089 635.02 288.588 634.205 292.698 632.577C296.886 630.87 300.493 628.505 303.518 625.48C306.62 622.378 309.024 618.81 310.731 614.777C312.437 610.666 313.29 606.168 313.29 601.281C313.29 596.395 312.437 591.936 310.731 587.903C309.024 583.792 306.62 580.224 303.518 577.199C300.493 574.097 296.886 571.731 292.698 570.103C288.588 568.396 284.089 567.543 279.203 567.543C274.317 567.543 269.78 568.396 265.591 570.103C261.403 571.731 257.758 574.097 254.656 577.199C251.631 580.224 249.226 583.792 247.443 587.903C245.736 591.936 244.883 596.395 244.883 601.281C244.883 606.09 245.736 610.55 247.443 614.66C249.226 618.771 251.631 622.378 254.656 625.48C257.758 628.505 261.403 630.87 265.591 632.577C269.78 634.205 274.317 635.02 279.203 635.02ZM414.024 642.698C407.897 642.698 402.196 641.69 396.922 639.673C391.726 637.579 387.189 634.671 383.311 630.948C379.51 627.147 376.524 622.765 374.352 617.802C372.258 612.76 371.211 607.254 371.211 601.281C371.211 595.309 372.258 589.842 374.352 584.878C376.524 579.836 379.51 575.454 383.311 571.731C387.189 567.931 391.726 565.023 396.922 563.006C402.119 560.912 407.819 559.865 414.024 559.865C420.151 559.865 425.813 560.912 431.009 563.006C436.206 565.023 440.704 567.892 444.505 571.615C448.383 575.338 451.369 579.72 453.463 584.761C455.634 589.803 456.72 595.309 456.72 601.281C456.72 607.254 455.634 612.76 453.463 617.802C451.369 622.843 448.383 627.225 444.505 630.948C440.704 634.671 436.206 637.579 431.009 639.673C425.813 641.69 420.151 642.698 414.024 642.698ZM414.024 635.02C418.91 635.02 423.409 634.205 427.519 632.577C431.707 630.87 435.314 628.505 438.339 625.48C441.441 622.378 443.845 618.81 445.552 614.777C447.258 610.666 448.111 606.168 448.111 601.281C448.111 596.395 447.258 591.936 445.552 587.903C443.845 583.792 441.441 580.224 438.339 577.199C435.314 574.097 431.707 571.731 427.519 570.103C423.409 568.396 418.91 567.543 414.024 567.543C409.138 567.543 404.601 568.396 400.412 570.103C396.224 571.731 392.579 574.097 389.477 577.199C386.452 580.224 384.047 583.792 382.264 587.903C380.557 591.936 379.704 596.395 379.704 601.281C379.704 606.09 380.557 610.55 382.264 614.66C384.047 618.771 386.452 622.378 389.477 625.48C392.579 628.505 396.224 630.87 400.412 632.577C404.601 634.205 409.138 635.02 414.024 635.02ZM513.245 642V560.563H543.726C554.041 560.563 562.146 563.045 568.041 568.009C574.013 572.895 576.999 579.72 576.999 588.484C576.999 594.224 575.642 599.187 572.927 603.376C570.29 607.486 566.49 610.666 561.526 612.915C556.562 615.087 550.629 616.173 543.726 616.173H518.015L521.854 612.217V642H513.245ZM568.855 642L547.914 612.45H557.221L578.279 642H568.855ZM521.854 612.915L518.015 608.844H543.493C551.637 608.844 557.803 607.06 561.991 603.492C566.257 599.924 568.39 594.922 568.39 588.484C568.39 581.969 566.257 576.928 561.991 573.36C557.803 569.793 551.637 568.009 543.493 568.009H518.015L521.854 563.937V612.915ZM634.546 642V560.563H643.156V642H634.546ZM706.881 642V560.563H713.978L770.169 631.297H766.446V560.563H774.939V642H767.842L711.767 571.266H715.49V642H706.881ZM874.464 642.698C868.259 642.698 862.52 641.69 857.246 639.673C852.049 637.579 847.512 634.671 843.634 630.948C839.834 627.225 836.848 622.843 834.676 617.802C832.582 612.76 831.535 607.254 831.535 601.281C831.535 595.309 832.582 589.803 834.676 584.761C836.848 579.72 839.873 575.338 843.751 571.615C847.628 567.892 852.166 565.023 857.362 563.006C862.636 560.912 868.376 559.865 874.58 559.865C880.785 559.865 886.447 560.834 891.566 562.773C896.762 564.712 901.183 567.66 904.828 571.615L899.477 577.083C896.064 573.67 892.302 571.227 888.192 569.754C884.081 568.28 879.66 567.543 874.929 567.543C869.888 567.543 865.234 568.396 860.969 570.103C856.78 571.731 853.096 574.097 849.916 577.199C846.814 580.224 844.371 583.792 842.587 587.903C840.881 591.936 840.028 596.395 840.028 601.281C840.028 606.09 840.881 610.55 842.587 614.66C844.371 618.771 846.814 622.378 849.916 625.48C853.096 628.505 856.78 630.87 860.969 632.577C865.234 634.205 869.849 635.02 874.813 635.02C879.466 635.02 883.849 634.322 887.959 632.926C892.147 631.53 895.987 629.164 899.477 625.829L904.363 632.344C900.485 635.756 895.948 638.355 890.751 640.139C885.555 641.845 880.126 642.698 874.464 642.698ZM904.363 632.344L896.103 631.297V601.281H904.363V632.344Z" fill="white"/>
<path d="M452.698 716.022V684.337H475.828V689.271H458.582V711.088H476.462V716.022H452.698ZM458.13 702.352V697.509H473.882V702.352H458.13ZM497.506 716.022V684.337H510.497C514.722 684.337 518.026 685.333 520.41 687.324C522.824 689.316 524.031 692.077 524.031 695.608C524.031 697.931 523.488 699.938 522.401 701.628C521.315 703.288 519.761 704.57 517.739 705.475C515.748 706.35 513.349 706.788 510.542 706.788H500.765L503.39 704.117V716.022H497.506ZM518.237 716.022L510.225 704.525H516.517L524.574 716.022H518.237ZM503.39 704.751L500.765 701.945H510.271C512.866 701.945 514.812 701.386 516.11 700.27C517.437 699.153 518.101 697.599 518.101 695.608C518.101 693.586 517.437 692.032 516.11 690.945C514.812 689.859 512.866 689.316 510.271 689.316H500.765L503.39 686.419V704.751ZM545.099 716.022V684.337H558.135C560.941 684.337 563.34 684.79 565.332 685.695C567.354 686.6 568.908 687.898 569.994 689.588C571.081 691.277 571.624 693.284 571.624 695.608C571.624 697.931 571.081 699.938 569.994 701.628C568.908 703.318 567.354 704.615 565.332 705.521C563.34 706.426 560.941 706.878 558.135 706.878H548.358L550.983 704.117V716.022H545.099ZM550.983 704.751L548.358 701.899H557.863C560.459 701.899 562.405 701.356 563.703 700.27C565.03 699.153 565.694 697.599 565.694 695.608C565.694 693.586 565.03 692.032 563.703 690.945C562.405 689.859 560.459 689.316 557.863 689.316H548.358L550.983 686.419V704.751Z" fill="white"/>
<rect width="267.899" height="2.13465" transform="matrix(1 0 0 -1 136.434 694.436)" fill="white"/>
<rect width="267.899" height="2.13465" transform="matrix(1 0 0 -1 617.798 694.436)" fill="white"/>
<path d="M426.978 335.226L428.149 336.334V336.35L502.806 407.982L484.994 426.548L428.149 372.006V486.427L417.27 497.306L401.631 513.064L401.729 311.12V311L426.978 335.226Z" fill="white"/>
<path d="M620.671 312.919V437.47H594.153V370.627L485.232 476.51V460.929L485.228 442.569L485.232 442.694L485.748 442.192L605.619 325.665L607.412 323.919L620.671 311V311.033L620.706 311L620.671 312.919Z" fill="white"/>
<path d="M562.062 460.588L568.181 454.809L573.621 449.709H620.537V460.588H562.062Z" fill="white"/>
<path d="M534.184 487.106L542.683 478.947L547.783 474.187H620.537V487.106H534.184Z" fill="white"/>
<path d="M506.986 512.944L514.805 505.465L519.905 500.705H620.537V512.944H506.986Z" fill="white"/>
</svg>
