<svg width="1024" height="1024" viewBox="0 0 1024 1024" fill="none" xmlns="http://www.w3.org/2000/svg">
<path d="M177.811 642V560.563H184.908L222.136 624.084H218.413L255.293 560.563H262.389V642H254.129V573.477H256.107L222.136 631.646H218.064L183.861 573.477H186.071V642H177.811ZM361.752 642.698C355.624 642.698 349.924 641.69 344.65 639.673C339.453 637.579 334.916 634.671 331.038 630.948C327.238 627.147 324.252 622.765 322.08 617.802C319.986 612.76 318.939 607.254 318.939 601.281C318.939 595.309 319.986 589.842 322.08 584.878C324.252 579.836 327.238 575.454 331.038 571.731C334.916 567.931 339.453 565.023 344.65 563.006C349.846 560.912 355.547 559.865 361.752 559.865C367.879 559.865 373.541 560.912 378.737 563.006C383.934 565.023 388.432 567.892 392.232 571.615C396.11 575.338 399.096 579.72 401.19 584.761C403.362 589.803 404.448 595.309 404.448 601.281C404.448 607.254 403.362 612.76 401.19 617.802C399.096 622.843 396.11 627.225 392.232 630.948C388.432 634.671 383.934 637.579 378.737 639.673C373.541 641.69 367.879 642.698 361.752 642.698ZM361.752 635.02C366.638 635.02 371.136 634.205 375.247 632.577C379.435 630.87 383.042 628.505 386.066 625.48C389.169 622.378 391.573 618.81 393.279 614.777C394.986 610.666 395.839 606.168 395.839 601.281C395.839 596.395 394.986 591.936 393.279 587.903C391.573 583.792 389.169 580.224 386.066 577.199C383.042 574.097 379.435 571.731 375.247 570.103C371.136 568.396 366.638 567.543 361.752 567.543C356.865 567.543 352.328 568.396 348.14 570.103C343.952 571.731 340.307 574.097 337.204 577.199C334.179 580.224 331.775 583.792 329.991 587.903C328.285 591.936 327.432 596.395 327.432 601.281C327.432 606.09 328.285 610.55 329.991 614.66C331.775 618.771 334.179 622.378 337.204 625.48C340.307 628.505 343.952 630.87 348.14 632.577C352.328 634.205 356.865 635.02 361.752 635.02ZM496.573 642.698C490.445 642.698 484.745 641.69 479.471 639.673C474.274 637.579 469.737 634.671 465.859 630.948C462.059 627.147 459.073 622.765 456.901 617.802C454.807 612.76 453.76 607.254 453.76 601.281C453.76 595.309 454.807 589.842 456.901 584.878C459.073 579.836 462.059 575.454 465.859 571.731C469.737 567.931 474.274 565.023 479.471 563.006C484.667 560.912 490.368 559.865 496.573 559.865C502.7 559.865 508.362 560.912 513.558 563.006C518.754 565.023 523.253 567.892 527.053 571.615C530.931 575.338 533.917 579.72 536.011 584.761C538.183 589.803 539.269 595.309 539.269 601.281C539.269 607.254 538.183 612.76 536.011 617.802C533.917 622.843 530.931 627.225 527.053 630.948C523.253 634.671 518.754 637.579 513.558 639.673C508.362 641.69 502.7 642.698 496.573 642.698ZM496.573 635.02C501.459 635.02 505.957 634.205 510.068 632.577C514.256 630.87 517.863 628.505 520.887 625.48C523.99 622.378 526.394 618.81 528.1 614.777C529.807 610.666 530.66 606.168 530.66 601.281C530.66 596.395 529.807 591.936 528.1 587.903C526.394 583.792 523.99 580.224 520.887 577.199C517.863 574.097 514.256 571.731 510.068 570.103C505.957 568.396 501.459 567.543 496.573 567.543C491.686 567.543 487.149 568.396 482.961 570.103C478.773 571.731 475.128 574.097 472.025 577.199C469 580.224 466.596 583.792 464.812 587.903C463.106 591.936 462.253 596.395 462.253 601.281C462.253 606.09 463.106 610.55 464.812 614.66C466.596 618.771 469 622.378 472.025 625.48C475.128 628.505 478.773 630.87 482.961 632.577C487.149 634.205 491.686 635.02 496.573 635.02ZM595.794 642V560.563H626.275C636.59 560.563 644.695 563.045 650.589 568.009C656.561 572.895 659.548 579.72 659.548 588.484C659.548 594.224 658.19 599.187 655.476 603.376C652.839 607.486 649.038 610.666 644.074 612.915C639.111 615.087 633.177 616.173 626.275 616.173H600.564L604.403 612.217V642H595.794ZM651.404 642L630.463 612.45H639.77L660.827 642H651.404ZM604.403 612.915L600.564 608.844H626.042C634.186 608.844 640.352 607.06 644.54 603.492C648.806 599.924 650.938 594.922 650.938 588.484C650.938 581.969 648.806 576.928 644.54 573.36C640.352 569.793 634.186 568.009 626.042 568.009H600.564L604.403 563.937V612.915ZM717.095 642V560.563H725.704V642H717.095ZM824.796 642.698C818.669 642.698 813.007 641.69 807.811 639.673C802.615 637.579 798.116 634.671 794.316 630.948C790.515 627.225 787.529 622.843 785.358 617.802C783.264 612.76 782.217 607.254 782.217 601.281C782.217 595.309 783.264 589.803 785.358 584.761C787.529 579.72 790.515 575.338 794.316 571.615C798.194 567.892 802.731 565.023 807.927 563.006C813.124 560.912 818.786 559.865 824.913 559.865C830.807 559.865 836.353 560.873 841.549 562.89C846.746 564.829 851.128 567.776 854.695 571.731L849.228 577.199C845.893 573.787 842.208 571.344 838.175 569.87C834.142 568.319 829.799 567.543 825.145 567.543C820.259 567.543 815.722 568.396 811.534 570.103C807.346 571.731 803.7 574.097 800.598 577.199C797.496 580.224 795.053 583.792 793.269 587.903C791.562 591.936 790.709 596.395 790.709 601.281C790.709 606.168 791.562 610.666 793.269 614.777C795.053 618.81 797.496 622.378 800.598 625.48C803.7 628.505 807.346 630.87 811.534 632.577C815.722 634.205 820.259 635.02 825.145 635.02C829.799 635.02 834.142 634.244 838.175 632.693C842.208 631.142 845.893 628.66 849.228 625.247L854.695 630.715C851.128 634.671 846.746 637.657 841.549 639.673C836.353 641.69 830.769 642.698 824.796 642.698Z" fill="white"/>
<path d="M452.698 716.022V684.337H475.828V689.271H458.582V711.088H476.462V716.022H452.698ZM458.13 702.352V697.509H473.882V702.352H458.13ZM497.506 716.022V684.337H510.497C514.722 684.337 518.026 685.333 520.41 687.324C522.824 689.316 524.031 692.077 524.031 695.608C524.031 697.931 523.488 699.938 522.401 701.628C521.315 703.288 519.761 704.57 517.739 705.475C515.748 706.351 513.349 706.788 510.542 706.788H500.765L503.39 704.117V716.022H497.506ZM518.237 716.022L510.225 704.525H516.517L524.574 716.022H518.237ZM503.39 704.751L500.765 701.945H510.271C512.866 701.945 514.812 701.387 516.11 700.27C517.437 699.154 518.101 697.599 518.101 695.608C518.101 693.586 517.437 692.032 516.11 690.946C514.812 689.859 512.866 689.316 510.271 689.316H500.765L503.39 686.419V704.751ZM545.099 716.022V684.337H558.135C560.941 684.337 563.34 684.79 565.332 685.695C567.354 686.6 568.908 687.898 569.994 689.588C571.081 691.278 571.624 693.284 571.624 695.608C571.624 697.931 571.081 699.938 569.994 701.628C568.908 703.318 567.354 704.615 565.332 705.521C563.34 706.426 560.941 706.879 558.135 706.879H548.358L550.983 704.117V716.022H545.099ZM550.983 704.751L548.358 701.9H557.863C560.459 701.9 562.405 701.356 563.703 700.27C565.03 699.154 565.694 697.599 565.694 695.608C565.694 693.586 565.03 692.032 563.703 690.946C562.405 689.859 560.459 689.316 557.863 689.316H548.358L550.983 686.419V704.751Z" fill="#1971D9"/>
<rect width="267.899" height="2.13465" transform="matrix(1 0 0 -1 136.434 694.436)" fill="#1971D9"/>
<rect width="267.899" height="2.13465" transform="matrix(1 0 0 -1 617.798 694.436)" fill="#1971D9"/>
<mask id="path-5-inside-1_9_630" fill="white">
<path d="M426.978 335.226L428.149 336.334V336.35L502.806 407.982L484.994 426.548L428.149 372.006V486.427L417.27 497.306L401.631 513.064L401.729 311.12V311L426.978 335.226Z"/>
</mask>
<path d="M426.978 335.226L428.149 336.334V336.35L502.806 407.982L484.994 426.548L428.149 372.006V486.427L417.27 497.306L401.631 513.064L401.729 311.12V311L426.978 335.226Z" fill="url(#paint0_linear_9_630)"/>
<path d="M426.978 335.226L426.507 335.716L426.511 335.719L426.978 335.226ZM428.149 336.334H428.829V336.041L428.616 335.84L428.149 336.334ZM428.149 336.35H427.469V336.64L427.678 336.84L428.149 336.35ZM502.806 407.982L503.297 408.453L503.768 407.963L503.277 407.492L502.806 407.982ZM484.994 426.548L484.523 427.038L485.014 427.509L485.484 427.019L484.994 426.548ZM428.149 372.006L428.62 371.515L427.469 370.411V372.006H428.149ZM428.149 486.427L428.63 486.908L428.829 486.708V486.427H428.149ZM417.27 497.306L416.789 496.825L416.787 496.827L417.27 497.306ZM401.631 513.064L400.951 513.064L400.951 514.716L402.114 513.543L401.631 513.064ZM401.729 311.12L402.409 311.12V311.12H401.729ZM401.729 311L402.2 310.509L401.049 309.405V311H401.729ZM426.978 335.226L426.511 335.719L427.681 336.828L428.149 336.334L428.616 335.84L427.445 334.732L426.978 335.226ZM428.149 336.334H427.469V336.35H428.149H428.829V336.334H428.149ZM428.149 336.35L427.678 336.84L502.335 408.473L502.806 407.982L503.277 407.492L428.62 335.859L428.149 336.35ZM502.806 407.982L502.316 407.512L484.503 426.077L484.994 426.548L485.484 427.019L503.297 408.453L502.806 407.982ZM484.994 426.548L485.464 426.057L428.62 371.515L428.149 372.006L427.678 372.496L484.523 427.038L484.994 426.548ZM428.149 372.006H427.469V486.427H428.149H428.829V372.006H428.149ZM428.149 486.427L427.668 485.946L416.789 496.825L417.27 497.306L417.751 497.786L428.63 486.908L428.149 486.427ZM417.27 497.306L416.787 496.827L401.149 512.585L401.631 513.064L402.114 513.543L417.753 497.785L417.27 497.306ZM401.631 513.064L402.311 513.065L402.409 311.12L401.729 311.12L401.049 311.12L400.951 513.064L401.631 513.064ZM401.729 311.12H402.409V311H401.729H401.049V311.12H401.729ZM401.729 311L401.258 311.491L426.507 335.716L426.978 335.226L427.449 334.735L402.2 310.509L401.729 311Z" fill="url(#paint1_linear_9_630)" mask="url(#path-5-inside-1_9_630)"/>
<mask id="path-7-inside-2_9_630" fill="white">
<path d="M620.671 312.919V437.47H594.153V370.627L485.232 476.51V460.929L485.228 442.569L485.232 442.694L485.748 442.192L605.619 325.665L607.412 323.919L620.671 311V311.033L620.706 311L620.671 312.919Z"/>
</mask>
<path d="M620.671 312.919V437.47H594.153V370.627L485.232 476.51V460.929L485.228 442.569L485.232 442.694L485.748 442.192L605.619 325.665L607.412 323.919L620.671 311V311.033L620.706 311L620.671 312.919Z" fill="url(#paint2_linear_9_630)"/>
<path d="M620.671 312.919L619.991 312.906V312.919H620.671ZM620.671 437.47V438.15H621.351V437.47H620.671ZM594.153 437.47H593.473V438.15H594.153V437.47ZM594.153 370.627H594.833V369.018L593.679 370.139L594.153 370.627ZM485.232 476.51H484.552V478.119L485.706 476.997L485.232 476.51ZM485.232 460.929H485.912V460.929L485.232 460.929ZM485.228 442.569L485.907 442.548L484.548 442.569L485.228 442.569ZM485.232 442.694L484.552 442.716L484.6 444.256L485.705 443.182L485.232 442.694ZM485.748 442.192L486.222 442.68L486.222 442.68L485.748 442.192ZM605.619 325.665L606.093 326.153L606.094 326.152L605.619 325.665ZM607.412 323.919L607.887 324.406L607.887 324.406L607.412 323.919ZM620.671 311H621.351V309.388L620.197 310.513L620.671 311ZM620.671 311.033H619.991V312.611L621.138 311.528L620.671 311.033ZM620.706 311L621.386 311.012L621.416 309.395L620.239 310.506L620.706 311ZM620.671 312.919H619.991V437.47H620.671H621.351V312.919H620.671ZM620.671 437.47V436.79H594.153V437.47V438.15H620.671V437.47ZM594.153 437.47H594.833V370.627H594.153H593.473V437.47H594.153ZM594.153 370.627L593.679 370.139L484.758 476.022L485.232 476.51L485.706 476.997L594.627 371.115L594.153 370.627ZM485.232 476.51H485.912V460.929H485.232H484.552V476.51H485.232ZM485.232 460.929L485.912 460.929L485.908 442.569L485.228 442.569L484.548 442.569L484.552 460.929L485.232 460.929ZM485.228 442.569L484.548 442.591L484.552 442.716L485.232 442.694L485.911 442.673L485.907 442.548L485.228 442.569ZM485.232 442.694L485.705 443.182L486.222 442.68L485.748 442.192L485.274 441.705L484.758 442.207L485.232 442.694ZM485.748 442.192L486.222 442.68L606.093 326.153L605.619 325.665L605.145 325.177L485.274 441.705L485.748 442.192ZM605.619 325.665L606.094 326.152L607.887 324.406L607.412 323.919L606.938 323.432L605.145 325.178L605.619 325.665ZM607.412 323.919L607.887 324.406L621.146 311.487L620.671 311L620.197 310.513L606.938 323.432L607.412 323.919ZM620.671 311H619.991V311.033H620.671H621.351V311H620.671ZM620.671 311.033L621.138 311.528L621.173 311.494L620.706 311L620.239 310.506L620.204 310.539L620.671 311.033ZM620.706 311L620.026 310.988L619.991 312.906L620.671 312.919L621.351 312.931L621.386 311.012L620.706 311Z" fill="url(#paint3_linear_9_630)" mask="url(#path-7-inside-2_9_630)"/>
<path d="M568.412 455.057H568.413L573.755 450.049H620.197V460.249H562.916L568.412 455.057Z" fill="url(#paint4_linear_9_630)" stroke="url(#paint5_linear_9_630)" stroke-width="0.679947"/>
<path d="M542.914 479.195H542.915L547.916 474.527H620.198V486.766H535.028L542.914 479.195Z" fill="url(#paint6_linear_9_630)" stroke="url(#paint7_linear_9_630)" stroke-width="0.679947"/>
<path d="M515.037 505.714H515.038L520.04 501.045H620.197V512.604H507.833L515.037 505.714Z" fill="url(#paint8_linear_9_630)" stroke="url(#paint9_linear_9_630)" stroke-width="0.679947"/>
<defs>
<linearGradient id="paint0_linear_9_630" x1="407.714" y1="299.441" x2="396.495" y2="522.804" gradientUnits="userSpaceOnUse">
<stop stop-color="#C8C8CB"/>
<stop offset="1" stop-color="#8B8E97"/>
</linearGradient>
<linearGradient id="paint1_linear_9_630" x1="452.219" y1="311" x2="452.219" y2="513.064" gradientUnits="userSpaceOnUse">
<stop stop-color="#999999" stop-opacity="0"/>
<stop offset="1" stop-color="white"/>
</linearGradient>
<linearGradient id="paint2_linear_9_630" x1="627.677" y1="304.88" x2="580.674" y2="279.954" gradientUnits="userSpaceOnUse">
<stop stop-color="#F2F3F3"/>
<stop offset="1" stop-color="#A8A9AE"/>
</linearGradient>
<linearGradient id="paint3_linear_9_630" x1="552.967" y1="311" x2="552.967" y2="476.51" gradientUnits="userSpaceOnUse">
<stop stop-color="#999999" stop-opacity="0"/>
<stop offset="1" stop-color="white"/>
</linearGradient>
<linearGradient id="paint4_linear_9_630" x1="562.062" y1="460.588" x2="627.676" y2="460.588" gradientUnits="userSpaceOnUse">
<stop stop-color="#4A76BF"/>
<stop offset="1" stop-color="#5787D0"/>
</linearGradient>
<linearGradient id="paint5_linear_9_630" x1="562.062" y1="455.149" x2="620.537" y2="455.149" gradientUnits="userSpaceOnUse">
<stop stop-color="#999999" stop-opacity="0"/>
<stop offset="1" stop-color="white"/>
</linearGradient>
<linearGradient id="paint6_linear_9_630" x1="534.184" y1="487.106" x2="627.676" y2="487.106" gradientUnits="userSpaceOnUse">
<stop stop-color="#3462A9"/>
<stop offset="1" stop-color="#3E77CD"/>
</linearGradient>
<linearGradient id="paint7_linear_9_630" x1="534.184" y1="480.647" x2="620.537" y2="480.647" gradientUnits="userSpaceOnUse">
<stop stop-color="#999999" stop-opacity="0"/>
<stop offset="1" stop-color="white"/>
</linearGradient>
<linearGradient id="paint8_linear_9_630" x1="506.986" y1="512.944" x2="628.696" y2="512.944" gradientUnits="userSpaceOnUse">
<stop stop-color="#042A6D"/>
<stop offset="1" stop-color="#04429C"/>
</linearGradient>
<linearGradient id="paint9_linear_9_630" x1="506.986" y1="506.825" x2="620.537" y2="506.825" gradientUnits="userSpaceOnUse">
<stop stop-color="#999999" stop-opacity="0"/>
<stop offset="1" stop-color="white"/>
</linearGradient>
</defs>
</svg>
