<svg width="1024" height="1024" viewBox="0 0 1024 1024" fill="none" xmlns="http://www.w3.org/2000/svg">
<mask id="path-1-inside-1_10_649" fill="white">
<path d="M280.692 300.611L283.967 303.71V303.753L489.395 500.858L440.38 551.941L283.967 401.865V716.702L254.032 746.638L211 789.999L211.268 234.33V234L280.692 300.611Z"/>
</mask>
<path d="M280.692 300.611L283.967 303.71V303.753L489.395 500.858L440.38 551.941L283.967 401.865V716.702L254.032 746.638L211 789.999L211.268 234.33V234L280.692 300.611Z" fill="url(#paint0_linear_10_649)"/>
<path d="M280.692 300.611L280 301.333L280.005 301.338L280.692 300.611ZM283.967 303.71H284.967V303.28L284.654 302.984L283.967 303.71ZM283.967 303.753H282.967V304.179L283.274 304.475L283.967 303.753ZM489.395 500.858L490.116 501.551L490.808 500.829L490.087 500.137L489.395 500.858ZM440.38 551.941L439.688 552.663L440.409 553.355L441.101 552.634L440.38 551.941ZM283.967 401.865L284.659 401.144L282.967 399.52V401.865H283.967ZM283.967 716.702L284.674 717.409L284.967 717.116V716.702H283.967ZM254.032 746.638L253.325 745.931L253.322 745.933L254.032 746.638ZM211 789.999L210 789.999L209.999 792.427L211.71 790.703L211 789.999ZM211.268 234.33L212.268 234.331V234.33H211.268ZM211.268 234L211.96 233.278L210.268 231.655V234H211.268ZM280.692 300.611L280.005 301.338L283.279 304.436L283.967 303.71L284.654 302.984L281.38 299.885L280.692 300.611ZM283.967 303.71H282.967V303.753H283.967H284.967V303.71H283.967ZM283.967 303.753L283.274 304.475L488.702 501.58L489.395 500.858L490.087 500.137L284.659 303.031L283.967 303.753ZM489.395 500.858L488.673 500.166L439.658 551.249L440.38 551.941L441.101 552.634L490.116 501.551L489.395 500.858ZM440.38 551.941L441.072 551.22L284.659 401.144L283.967 401.865L283.274 402.587L439.688 552.663L440.38 551.941ZM283.967 401.865H282.967V716.702H283.967H284.967V401.865H283.967ZM283.967 716.702L283.26 715.995L253.325 745.931L254.032 746.638L254.739 747.345L284.674 717.409L283.967 716.702ZM254.032 746.638L253.322 745.933L210.29 789.295L211 789.999L211.71 790.703L254.742 747.342L254.032 746.638ZM211 789.999L212 790L212.268 234.331L211.268 234.33L210.268 234.33L210 789.999L211 789.999ZM211.268 234.33H212.268V234H211.268H210.268V234.33H211.268ZM211.268 234L210.575 234.722L280 301.333L280.692 300.611L281.385 299.89L211.96 233.278L211.268 234Z" fill="url(#paint1_linear_10_649)" mask="url(#path-1-inside-1_10_649)"/>
<mask id="path-3-inside-2_10_649" fill="white">
<path d="M813.715 239.183V581.995H740.748V398.069L441.035 689.417V646.542L441.025 596.027L441.035 596.369L442.456 594.988L773.131 273.543L777.232 269.548L813.715 234V234.092L813.81 234L813.715 239.183Z"/>
</mask>
<path d="M813.715 239.183V581.995H740.748V398.069L441.035 689.417V646.542L441.025 596.027L441.035 596.369L442.456 594.988L773.131 273.543L777.232 269.548L813.715 234V234.092L813.81 234L813.715 239.183Z" fill="url(#paint2_linear_10_649)"/>
<path d="M813.715 239.183L812.715 239.164L812.715 239.173V239.183H813.715ZM813.715 581.995V582.995H814.715V581.995H813.715ZM740.748 581.995H739.748V582.995H740.748V581.995ZM740.748 398.069H741.748V395.703L740.051 397.352L740.748 398.069ZM441.035 689.417H440.035V691.784L441.732 690.134L441.035 689.417ZM441.035 646.542H442.035V646.542L441.035 646.542ZM441.025 596.027L442.024 595.996L440.025 596.028L441.025 596.027ZM441.035 596.369L440.036 596.401L440.107 598.666L441.732 597.086L441.035 596.369ZM442.456 594.988L443.153 595.705L443.153 595.705L442.456 594.988ZM773.131 273.543L773.828 274.26L773.829 274.259L773.131 273.543ZM777.232 269.548L777.93 270.264L777.93 270.264L777.232 269.548ZM813.715 234H814.715V231.629L813.017 233.284L813.715 234ZM813.715 234.092H812.715V236.453L814.411 234.81L813.715 234.092ZM813.81 234L814.81 234.018L814.854 231.596L813.114 233.282L813.81 234ZM813.715 239.183H812.715V581.995H813.715H814.715V239.183H813.715ZM813.715 581.995V580.995H740.748V581.995V582.995H813.715V581.995ZM740.748 581.995H741.748V398.069H740.748H739.748V581.995H740.748ZM740.748 398.069L740.051 397.352L440.338 688.7L441.035 689.417L441.732 690.134L741.445 398.786L740.748 398.069ZM441.035 689.417H442.035V646.542H441.035H440.035V689.417H441.035ZM441.035 646.542L442.035 646.542L442.025 596.027L441.025 596.027L440.025 596.028L440.035 646.542L441.035 646.542ZM441.025 596.027L440.025 596.059L440.036 596.401L441.035 596.369L442.035 596.338L442.024 595.996L441.025 596.027ZM441.035 596.369L441.732 597.086L443.153 595.705L442.456 594.988L441.759 594.271L440.339 595.652L441.035 596.369ZM442.456 594.988L443.153 595.705L773.828 274.26L773.131 273.543L772.434 272.826L441.759 594.271L442.456 594.988ZM773.131 273.543L773.829 274.259L777.93 270.264L777.232 269.548L776.534 268.832L772.433 272.827L773.131 273.543ZM777.232 269.548L777.93 270.264L814.413 234.716L813.715 234L813.017 233.284L776.534 268.832L777.232 269.548ZM813.715 234H812.715V234.092H813.715H814.715V234H813.715ZM813.715 234.092L814.411 234.81L814.506 234.718L813.81 234L813.114 233.282L813.019 233.374L813.715 234.092ZM813.81 234L812.81 233.982L812.715 239.164L813.715 239.183L814.715 239.201L814.81 234.018L813.81 234Z" fill="url(#paint3_linear_10_649)" mask="url(#path-3-inside-2_10_649)"/>
<path d="M669.623 630.069H669.624L684.446 616.172H812.846V645.107H653.701L669.623 630.069Z" fill="url(#paint4_linear_10_649)" stroke="url(#paint5_linear_10_649)"/>
<path d="M599.462 696.488H599.463L613.35 683.526H812.845V718.073H576.976L599.462 696.488Z" fill="url(#paint6_linear_10_649)" stroke="url(#paint7_linear_10_649)"/>
<path d="M522.752 769.454H522.753L536.641 756.493H812.845V789.169H502.142L522.752 769.454Z" fill="url(#paint8_linear_10_649)" stroke="url(#paint9_linear_10_649)"/>
<defs>
<linearGradient id="paint0_linear_10_649" x1="227.736" y1="202.194" x2="196.866" y2="816.799" gradientUnits="userSpaceOnUse">
<stop stop-color="#C8C8CB"/>
<stop offset="1" stop-color="#8B8E97"/>
</linearGradient>
<linearGradient id="paint1_linear_10_649" x1="350.197" y1="234" x2="350.197" y2="789.999" gradientUnits="userSpaceOnUse">
<stop stop-color="#999999" stop-opacity="0"/>
<stop offset="1" stop-color="white"/>
</linearGradient>
<linearGradient id="paint2_linear_10_649" x1="832.99" y1="217.162" x2="703.656" y2="148.574" gradientUnits="userSpaceOnUse">
<stop stop-color="#F2F3F3"/>
<stop offset="1" stop-color="#A8A9AE"/>
</linearGradient>
<linearGradient id="paint3_linear_10_649" x1="627.417" y1="234" x2="627.417" y2="689.417" gradientUnits="userSpaceOnUse">
<stop stop-color="#999999" stop-opacity="0"/>
<stop offset="1" stop-color="white"/>
</linearGradient>
<linearGradient id="paint4_linear_10_649" x1="652.443" y1="645.607" x2="832.991" y2="645.607" gradientUnits="userSpaceOnUse">
<stop stop-color="#4A76BF"/>
<stop offset="1" stop-color="#5787D0"/>
</linearGradient>
<linearGradient id="paint5_linear_10_649" x1="652.443" y1="630.639" x2="813.346" y2="630.639" gradientUnits="userSpaceOnUse">
<stop stop-color="#999999" stop-opacity="0"/>
<stop offset="1" stop-color="white"/>
</linearGradient>
<linearGradient id="paint6_linear_10_649" x1="575.734" y1="718.573" x2="832.991" y2="718.573" gradientUnits="userSpaceOnUse">
<stop stop-color="#3462A9"/>
<stop offset="1" stop-color="#3E77CD"/>
</linearGradient>
<linearGradient id="paint7_linear_10_649" x1="575.734" y1="700.8" x2="813.346" y2="700.8" gradientUnits="userSpaceOnUse">
<stop stop-color="#999999" stop-opacity="0"/>
<stop offset="1" stop-color="white"/>
</linearGradient>
<linearGradient id="paint8_linear_10_649" x1="500.896" y1="789.669" x2="835.797" y2="789.669" gradientUnits="userSpaceOnUse">
<stop stop-color="#042A6D"/>
<stop offset="1" stop-color="#04429C"/>
</linearGradient>
<linearGradient id="paint9_linear_10_649" x1="500.896" y1="772.831" x2="813.345" y2="772.831" gradientUnits="userSpaceOnUse">
<stop stop-color="#999999" stop-opacity="0"/>
<stop offset="1" stop-color="white"/>
</linearGradient>
</defs>
</svg>
