<svg width="1024" height="1024" viewBox="0 0 1024 1024" fill="none" xmlns="http://www.w3.org/2000/svg">
<path d="M280.657 300.578L283.967 303.71V303.754L489.393 500.858L440.378 551.942L283.967 401.866V716.703L254.031 746.639L211 790L211.268 234.33V234L280.657 300.578Z" fill="#256FDC"/>
<path d="M813.712 239.178V581.995H740.745V398.07L441.034 689.418V646.543L441.023 596.027L441.034 596.369L442.455 594.988L773.036 273.632L777.228 269.548L813.712 234V234.092L813.806 234L813.712 239.178Z" fill="#256FDC"/>
<path d="M652.44 645.608L669.279 629.705L684.246 615.672H813.342V645.608H652.44Z" fill="#256FDC"/>
<path d="M575.732 718.574L599.118 696.123L613.151 683.027H813.342V718.574H575.732Z" fill="#256FDC"/>
<path d="M500.894 789.67L522.41 769.09L536.442 755.993H813.341V789.67H500.894Z" fill="#256FDC"/>
</svg>
